# xmcd CD database file generated by MAGIX_Freedb v0.9beta0
# 
# Track frame offsets:
#      150
#      13373
#      26790
#      41181
#      54978
#      70290
#      85341
#      97959
#      111829
#      127627
#      145405
#      166671
#      184228
#      203529
#      218937
#      236645
#      254353
#      270913
# 
# Disc length: 3826 seconds
# 
# Revision: 0 
# Processed by: cddbd v1.5.1PL0 Copyright (c) Steve Scherf et al.
# Submitted via: MAGIX_Freedb v0.9beta0
# 
DISCID=fb0ef012
DTITLE=Grant&Forsyth - HUN GROOTSTE SUCCESEN
DYEAR=1900
DGENRE=
TTITLE0=Grant&Forsyth - HUN GROOTSTE SUCCESEN
TTITLE1=
TTITLE2=
TTITLE3=
TTITLE4=
TTITLE5=
TTITLE6=
TTITLE7=
TTITLE8=
TTITLE9=
TTITLE10=
TTITLE11=
TTITLE12=
TTITLE13=
TTITLE14=
TTITLE15=
TTITLE16=
TTITLE17=
EXTD=
EXTT0=
EXTT1=
EXTT2=
EXTT3=
EXTT4=
EXTT5=
EXTT6=
EXTT7=
EXTT8=
EXTT9=
EXTT10=
EXTT11=
EXTT12=
EXTT13=
EXTT14=
EXTT15=
EXTT16=
EXTT17=
PLAYORDER=
